<?xml version="1.0" standalone="no"?>
<!DOCTYPE svg PUBLIC "-//W3C//DTD SVG 20010904//EN"
 "http://www.w3.org/TR/2001/REC-SVG-20010904/DTD/svg10.dtd">
<svg version="1.0" xmlns="http://www.w3.org/2000/svg"
 width="736.000000pt" height="981.000000pt" viewBox="0 0 736.000000 981.000000"
 preserveAspectRatio="xMidYMid meet">

<g transform="translate(0.000000,981.000000) scale(0.100000,-0.100000)"
fill="#000000" stroke="none">
<path d="M32 7694 c-37 -25 -30 -86 19 -169 49 -83 151 -295 183 -380 13 -33
46 -106 74 -162 28 -56 70 -151 92 -213 23 -61 50 -125 60 -143 10 -18 33 -67
50 -111 18 -43 48 -101 66 -128 19 -28 34 -63 34 -78 0 -22 4 -27 18 -24 12 4
29 -11 58 -53 70 -99 95 -160 122 -293 35 -181 36 -196 18 -234 -9 -19 -16
-39 -16 -46 0 -17 -84 -213 -121 -283 -29 -55 -29 -59 -15 -88 15 -29 14 -32
-40 -123 -30 -51 -54 -99 -54 -106 0 -7 -13 -34 -29 -59 -44 -70 -62 -155 -60
-290 4 -231 2 -245 -24 -297 -43 -86 -62 -170 -60 -267 2 -49 9 -100 17 -115
9 -18 15 -86 19 -210 5 -154 9 -188 24 -210 24 -36 44 -198 48 -387 3 -156 -1
-172 -42 -216 -26 -28 -42 -75 -50 -146 -4 -37 -1 -48 29 -85 19 -24 41 -65
48 -93 7 -27 17 -55 22 -62 9 -11 22 -34 63 -113 8 -14 21 -63 30 -110 33
-165 81 -274 132 -297 10 -4 1290 -7 2845 -5 l2827 2 11 35 c8 25 8 39 0 55
-7 13 -9 37 -5 60 5 31 3 42 -14 59 -12 12 -32 21 -46 21 -14 0 -25 4 -25 8 0
9 -24 23 -85 47 l-40 16 55 30 c104 57 142 111 122 177 -16 52 -18 102 -9 214
6 70 5 102 -3 119 -15 28 -17 160 -4 214 6 22 18 54 27 72 9 18 17 39 17 48 0
27 -38 55 -76 55 -47 0 -88 25 -101 61 -15 38 -6 66 34 113 18 22 33 48 33 59
0 10 12 39 26 63 34 58 24 86 -41 114 -45 19 -45 20 -45 68 0 56 23 115 76
194 57 84 81 139 87 199 7 72 -6 97 -63 119 -41 16 -45 20 -48 56 -5 60 -5 74
2 141 7 73 -12 160 -48 212 -24 35 -58 153 -70 241 -5 35 -2 53 14 80 60 105
82 156 86 203 14 149 48 234 153 377 141 191 335 484 426 643 89 155 94 162
122 158 15 -2 42 -4 58 -5 42 -2 39 24 -5 46 -19 10 -35 21 -35 25 0 5 19 46
42 93 42 84 174 414 260 645 46 124 56 192 34 232 -15 29 -53 38 -84 21 -91
-49 -197 -114 -305 -186 -154 -102 -198 -125 -304 -156 -46 -14 -120 -41 -164
-60 -45 -20 -120 -45 -167 -56 -88 -21 -164 -50 -207 -80 -14 -9 -45 -24 -70
-32 -25 -8 -62 -27 -84 -42 -50 -34 -105 -48 -155 -40 -31 5 -60 -1 -128 -25
-48 -18 -105 -43 -125 -57 -21 -13 -72 -38 -114 -54 -42 -17 -93 -39 -114 -50
-51 -26 -138 -26 -241 0 -44 12 -84 18 -89 15 -5 -3 -32 4 -60 16 -38 16 -61
20 -95 16 -29 -4 -56 -2 -78 7 -103 45 -211 59 -272 36 -15 -6 -30 -8 -35 -5
-5 3 -21 -6 -38 -19 l-29 -25 -16 35 c-17 34 -37 47 -89 58 -15 4 -43 22 -62
42 -54 56 -170 75 -219 36 -16 -12 -101 -22 -262 -30 -212 -11 -345 -6 -437
18 -46 12 -102 26 -126 32 -53 13 -119 6 -203 -23 -40 -13 -89 -22 -129 -22
-186 0 -259 4 -295 16 -58 20 -224 31 -261 16 -16 -6 -53 -11 -81 -10 -30 1
-69 -6 -90 -15 -49 -22 -228 -27 -293 -9 -75 21 -331 145 -590 285 -135 73
-357 190 -495 260 -137 69 -297 157 -355 195 -193 125 -291 159 -348 119z
m137 -104 c33 -16 112 -64 177 -106 65 -42 235 -136 378 -209 144 -72 356
-183 471 -245 116 -62 289 -151 385 -198 l175 -84 114 -8 c124 -8 243 1 265
19 14 11 133 25 201 23 90 -2 163 -10 187 -20 15 -6 85 -11 155 -12 70 0 151
-1 178 -2 35 -1 78 8 138 30 89 32 151 41 162 22 3 -5 21 -10 38 -10 18 0 55
-9 82 -19 28 -11 87 -22 130 -26 44 -3 90 -8 101 -11 12 -3 73 0 135 6 123 12
277 22 321 21 15 -1 45 8 65 19 47 25 86 19 128 -19 45 -41 81 -61 109 -61 18
0 30 -9 40 -28 8 -16 22 -34 30 -41 22 -18 84 -16 105 3 10 9 25 16 34 16 9 0
18 4 21 9 11 17 96 21 126 6 16 -8 38 -15 50 -15 11 0 39 -9 62 -21 33 -17 51
-20 90 -15 39 5 56 3 81 -12 19 -11 60 -22 99 -25 38 -4 76 -11 87 -16 22 -12
247 -17 274 -6 9 4 17 13 17 20 0 7 37 27 83 45 45 17 98 41 117 54 62 40 170
74 251 79 70 3 84 8 156 50 44 26 87 47 95 47 8 0 31 11 51 24 53 36 123 65
201 83 39 8 114 33 166 55 52 22 128 48 168 59 109 28 220 86 351 182 35 26
69 47 76 47 15 0 129 64 158 88 14 13 17 13 17 1 0 -19 -74 -239 -93 -275 -8
-16 -38 -90 -67 -164 -28 -74 -57 -148 -63 -165 -7 -16 -38 -83 -71 -147 -39
-79 -64 -118 -75 -118 -9 0 -59 9 -111 20 -109 23 -124 24 -115 10 3 -5 13
-10 22 -10 14 0 169 -57 182 -66 4 -3 -120 -218 -203 -351 -38 -62 -56 -83
-72 -83 -50 0 -406 123 -442 152 -7 6 -15 8 -19 4 -31 -30 327 -166 440 -166
15 0 27 -3 27 -6 0 -7 -14 -28 -148 -217 l-105 -147 -26 23 c-14 13 -53 43
-85 68 -64 48 -181 150 -345 302 -100 92 -139 114 -156 88 -3 -6 26 -40 64
-77 39 -37 68 -70 66 -74 -3 -4 1 -7 8 -6 7 0 76 -56 153 -127 77 -70 154
-137 171 -150 18 -12 44 -41 59 -65 27 -42 46 -52 25 -13 -10 18 -9 20 19 18
16 -1 30 -3 30 -4 0 -1 -18 -30 -39 -63 -50 -77 -80 -166 -90 -267 -9 -83 -42
-166 -88 -214 -30 -32 -39 -87 -24 -154 26 -126 56 -213 84 -253 29 -41 31
-48 30 -125 -6 -266 -6 -263 23 -286 14 -11 41 -23 60 -27 26 -5 34 -11 34
-28 0 -30 -39 -109 -94 -189 -25 -38 -46 -72 -46 -77 0 -5 -10 -25 -21 -45
-19 -32 -21 -46 -15 -115 8 -100 10 -105 52 -125 29 -13 33 -19 24 -35 -5 -10
-10 -29 -10 -41 0 -12 -16 -39 -35 -60 -19 -22 -35 -47 -35 -58 0 -10 -7 -24
-15 -31 -8 -7 -15 -22 -15 -34 0 -37 39 -106 65 -116 14 -5 25 -13 25 -18 0
-11 46 -32 71 -32 17 0 19 -5 13 -42 -4 -24 -14 -53 -22 -66 -19 -29 -12 -150
12 -206 12 -29 14 -55 9 -114 -8 -94 -5 -200 6 -220 14 -25 -43 -88 -97 -106
-25 -9 -55 -16 -67 -16 -31 0 -69 -43 -60 -69 9 -29 61 -70 125 -99 64 -29
109 -64 126 -98 l13 -24 -2757 -4 c-1516 -2 -2770 -5 -2785 -6 -20 -2 -37 5
-54 22 -25 25 -35 57 -53 168 -14 79 -47 190 -64 209 -7 9 -17 27 -21 41 -4
14 -16 43 -25 65 -10 22 -21 53 -24 68 -7 28 -13 39 -48 78 -22 23 -22 47 -3
73 8 11 15 26 15 34 0 7 15 34 33 60 29 43 33 56 38 142 4 60 1 128 -8 185 -7
50 -17 136 -22 192 -5 74 -12 108 -24 121 -10 11 -16 27 -15 38 1 10 -1 44 -5
74 -4 30 -10 114 -13 185 -2 72 -6 159 -7 195 -2 36 3 79 10 97 7 18 13 43 13
55 0 13 12 48 26 78 37 78 51 154 41 220 -14 95 -15 222 -1 265 8 22 14 47 14
55 0 8 15 40 34 70 19 31 38 68 42 84 4 16 25 58 47 94 60 99 69 125 56 161
-9 25 -8 36 5 56 9 13 16 29 16 35 0 6 19 57 43 113 94 221 98 236 77 307 -6
19 -17 78 -25 130 -8 52 -17 104 -20 115 -4 17 12 30 97 80 56 33 122 79 146
102 39 37 43 45 32 59 -12 14 -20 9 -69 -45 -47 -51 -70 -67 -140 -96 -46 -20
-87 -32 -91 -28 -4 4 -22 34 -39 67 -17 32 -51 86 -76 120 l-44 63 57 75 c93
121 101 130 111 124 5 -4 13 -1 17 5 4 8 3 9 -4 5 -22 -13 -12 5 28 53 23 27
40 58 40 72 0 24 0 24 -24 -6 -13 -16 -29 -31 -35 -31 -6 -1 -17 -2 -23 -3 -9
-1 -8 -4 2 -11 13 -9 13 -11 0 -19 -8 -5 -18 -7 -24 -4 -5 4 -6 1 -2 -6 5 -8
-16 -37 -56 -79 -35 -37 -75 -82 -90 -101 l-26 -34 -26 46 c-15 25 -39 75 -52
111 l-25 64 35 69 c19 37 44 82 55 98 22 32 28 65 11 65 -5 0 -35 -38 -66 -85
-32 -47 -60 -85 -64 -85 -4 0 -12 12 -19 26 -10 23 -8 37 19 101 17 41 29 77
26 80 -9 10 -27 -9 -50 -55 l-24 -47 -14 35 c-14 33 -13 38 21 103 21 42 39
66 47 63 8 -3 11 0 8 8 -3 8 -1 17 5 21 12 7 15 45 4 45 -13 0 -61 -65 -85
-114 -12 -25 -24 -46 -27 -45 -8 0 -103 197 -132 269 -11 30 -37 92 -57 138
-19 45 -32 85 -29 88 9 10 106 -59 99 -70 -3 -5 0 -6 6 -2 6 4 42 -16 79 -44
103 -77 209 -153 302 -217 47 -32 97 -67 111 -78 15 -11 56 -40 90 -64 34 -24
70 -51 79 -60 9 -9 31 -27 49 -40 23 -16 31 -28 27 -39 -3 -9 -3 -14 0 -10 4
3 36 -16 72 -44 63 -47 122 -118 123 -146 0 -7 5 -20 10 -30 6 -9 19 -46 29
-81 18 -66 36 -89 64 -78 54 21 10 225 -67 305 -22 24 -61 58 -86 75 -25 16
-63 49 -85 71 -32 33 -306 222 -451 312 -42 26 -164 104 -291 187 -104 68
-152 90 -177 81 -6 -2 -19 10 -28 28 -9 18 -31 57 -48 86 -17 28 -28 52 -25
52 3 0 32 -13 64 -30z"/>
<path d="M240 7396 c0 -2 7 -9 15 -16 13 -11 14 -10 9 4 -5 14 -24 23 -24 12z"/>
<path d="M405 7270 c-3 -6 1 -7 9 -4 18 7 21 14 7 14 -6 0 -13 -4 -16 -10z"/>
<path d="M325 7230 c10 -11 20 -20 23 -20 3 0 -3 9 -13 20 -10 11 -20 20 -23
20 -3 0 3 -9 13 -20z"/>
<path d="M380 7174 c0 -6 19 -28 43 -49 l42 -40 -40 45 c-22 25 -41 47 -42 49
-2 2 -3 0 -3 -5z"/>
<path d="M7050 7153 c-24 -9 -67 -29 -94 -45 -27 -17 -73 -38 -100 -49 -66
-25 -142 -63 -359 -182 -97 -53 -179 -97 -182 -97 -2 0 -57 -25 -122 -56 -128
-61 -242 -125 -285 -160 -16 -13 -38 -26 -50 -29 -13 -4 -38 -18 -55 -32 -18
-13 -52 -30 -75 -39 -78 -27 -329 -192 -380 -250 -46 -53 -96 -191 -82 -228 9
-25 24 -9 24 27 0 55 87 196 112 181 5 -3 7 0 6 7 -2 6 3 14 11 17 9 3 11 0 6
-9 -5 -8 -4 -11 1 -6 5 5 9 13 9 17 0 29 225 156 395 223 47 18 116 52 154 75
47 28 77 40 90 36 15 -4 17 -3 7 4 -16 12 3 27 21 16 7 -4 8 -3 4 5 -5 7 6 17
31 27 117 49 268 123 418 205 211 115 267 144 331 168 27 11 72 32 100 48 27
16 75 42 107 58 50 25 58 32 55 54 -4 32 -34 37 -98 14z"/>
<path d="M481 7073 c7 -12 15 -20 18 -17 3 2 -3 12 -13 22 -17 16 -18 16 -5
-5z"/>
<path d="M6993 7018 c-24 -32 -24 -41 0 -19 15 14 27 26 27 28 0 8 -19 2 -27
-9z"/>
<path d="M606 6964 c-23 -23 -20 -30 4 -9 11 10 20 20 20 22 0 7 -9 2 -24 -13z"/>
<path d="M6860 6950 c-9 -6 -10 -10 -3 -10 6 0 15 5 18 10 8 12 4 12 -15 0z"/>
<path d="M620 6911 c0 -10 19 -25 25 -20 1 2 -3 10 -11 17 -8 7 -14 8 -14 3z"/>
<path d="M950 6891 c0 -5 7 -12 16 -15 14 -5 15 -4 4 9 -14 17 -20 19 -20 6z"/>
<path d="M6645 6730 c-3 -6 1 -7 9 -4 18 7 21 14 7 14 -6 0 -13 -4 -16 -10z"/>
<path d="M6450 6710 c0 -5 5 -10 11 -10 5 0 7 5 4 10 -3 6 -8 10 -11 10 -2 0
-4 -4 -4 -10z"/>
<path d="M6356 6524 c-5 -14 -4 -15 9 -4 17 14 19 20 6 20 -5 0 -12 -7 -15
-16z"/>
<path d="M930 6493 c0 -6 8 -17 18 -24 16 -13 16 -13 2 6 -8 11 -16 22 -17 24
-2 2 -3 0 -3 -6z"/>
<path d="M6316 6485 c-11 -8 -15 -15 -9 -15 6 0 16 7 23 15 16 19 11 19 -14 0z"/>
<path d="M6405 6480 c-8 -13 -8 -14 200 -54 99 -19 188 -38 198 -41 11 -5 17
-2 17 8 0 21 -85 46 -279 81 -97 19 -127 20 -136 6z"/>
<path d="M6260 6428 l-23 -33 31 29 c34 31 37 36 24 36 -5 0 -19 -15 -32 -32z"/>
<path d="M955 6337 c-49 -19 -74 -36 -85 -57 -20 -38 29 -22 78 25 26 24 45
44 42 44 -3 0 -18 -6 -35 -12z"/>
<path d="M1170 6346 c0 -2 8 -10 18 -17 15 -13 16 -12 3 4 -13 16 -21 21 -21
13z"/>
<path d="M1239 6333 c-13 -16 -12 -17 4 -4 16 13 21 21 13 21 -2 0 -10 -8 -17
-17z"/>
<path d="M6114 6268 l-19 -23 23 19 c21 18 27 26 19 26 -2 0 -12 -10 -23 -22z"/>
<path d="M6007 6134 c-13 -13 236 -123 321 -142 52 -12 55 0 5 21 -167 69
-309 127 -314 127 -3 0 -8 -3 -12 -6z"/>
<path d="M5955 6069 c-4 -6 -5 -12 -2 -15 2 -3 7 2 10 11 7 17 1 20 -8 4z"/>
<path d="M5311 6034 c0 -11 3 -14 6 -6 3 7 2 16 -1 19 -3 4 -6 -2 -5 -13z"/>
<path d="M5547 5995 c5 -8 23 -25 40 -38 17 -12 56 -42 88 -65 31 -24 59 -41
62 -38 3 3 -2 8 -11 12 -9 3 -16 12 -16 18 0 7 -15 24 -32 38 -18 15 -50 40
-72 57 -42 33 -73 42 -59 16z"/>
<path d="M5741 5981 c-9 -6 -2 -20 29 -56 45 -52 183 -315 166 -315 -2 0 -16
20 -30 44 -15 25 -32 48 -38 52 -14 9 26 -63 89 -158 24 -36 53 -89 65 -117
19 -48 39 -63 53 -42 13 22 -117 308 -203 445 -38 60 -59 103 -56 114 5 13 4
14 -4 3 -8 -11 -11 -11 -18 0 -16 25 -39 38 -53 30z"/>
<path d="M5320 5915 c13 -14 26 -25 28 -25 3 0 -5 11 -18 25 -13 14 -26 25
-28 25 -3 0 5 -11 18 -25z"/>
<path d="M5590 5870 c-9 -6 -10 -10 -3 -10 6 0 15 5 18 10 8 12 4 12 -15 0z"/>
<path d="M5498 5863 c7 -3 16 -2 19 1 4 3 -2 6 -13 5 -11 0 -14 -3 -6 -6z"/>
<path d="M1053 5229 c-22 -23 -15 -39 45 -98 53 -54 72 -83 118 -186 62 -137
293 -248 425 -204 79 27 156 144 146 220 -10 76 -75 122 -262 188 -197 70
-442 111 -472 80z m610 -187 c51 -50 56 -62 31 -83 -13 -10 -20 -10 -44 4 -15
9 -35 17 -44 17 -8 0 -31 16 -50 35 -20 19 -40 35 -46 35 -12 0 -14 33 -2 44
4 4 30 5 57 1 42 -5 58 -14 98 -53z"/>
<path d="M3495 5104 c-177 -28 -366 -96 -465 -169 -57 -42 -160 -152 -160
-171 0 -27 179 -87 315 -105 218 -30 556 61 744 200 36 27 96 64 134 82 71 35
80 51 50 87 -14 15 -61 28 -208 56 -205 39 -266 42 -410 20z m269 -44 c35 -16
66 -35 69 -43 9 -24 -9 -38 -49 -37 -21 0 -56 -2 -77 -6 -22 -4 -43 -2 -51 5
-7 6 -31 10 -53 9 -22 0 -45 2 -51 6 -22 13 -13 43 16 54 33 13 114 39 125 41
4 0 36 -12 71 -29z"/>
<path d="M1668 4239 c-54 -16 -82 -64 -82 -143 1 -77 14 -102 108 -199 58 -60
85 -99 116 -162 39 -84 60 -105 100 -105 24 0 45 21 94 95 74 112 169 172 346
220 156 43 197 72 167 119 -27 41 -208 112 -402 158 -95 23 -388 34 -447 17z
m85 -36 c-13 -2 -33 -2 -45 0 -13 2 -3 4 22 4 25 0 35 -2 23 -4z m150 0 c-13
-2 -33 -2 -45 0 -13 2 -3 4 22 4 25 0 35 -2 23 -4z m-228 -63 c-7 -25 -14 -38
-14 -29 -1 18 20 82 25 77 2 -2 -3 -24 -11 -48z m425 40 c24 -8 24 -8 -7 -9
-17 -1 -35 4 -38 9 -7 11 9 11 45 0z m135 -36 c39 -14 84 -29 100 -34 l30 -8
-37 -1 c-21 -1 -38 3 -38 8 0 4 -33 18 -72 30 -97 30 -96 29 -73 30 11 0 52
-11 90 -25z m-60 -25 c15 -7 13 -8 -12 -3 -17 3 -41 0 -52 -6 -13 -6 -21 -7
-21 -1 0 18 54 25 85 10z m59 -25 c5 -14 4 -15 -9 -4 -17 14 -19 20 -6 20 5 0
12 -7 15 -16z m183 -11 c10 -10 14 -15 8 -11 -6 4 -22 12 -36 17 -15 6 -18 10
-8 10 9 1 25 -7 36 -16z m-133 -22 c-2 -3 -12 3 -22 13 -16 17 -16 18 5 5 12
-7 20 -15 17 -18z m-605 -26 c0 -5 -4 -3 -9 5 -5 8 -9 22 -9 30 0 16 17 -16
18 -35z m565 4 c5 -4 -8 -4 -30 2 -21 6 -43 15 -48 20 -5 4 8 4 30 -2 21 -6
43 -15 48 -20z m230 0 c-6 -11 -24 -2 -24 11 0 5 7 7 15 4 8 -4 12 -10 9 -15z
m-35 -2 c-13 -10 -119 -33 -119 -26 0 7 40 21 95 31 19 4 33 1 24 -5z m-738
-34 c13 -16 12 -17 -3 -4 -10 7 -18 15 -18 17 0 8 8 3 21 -13z m574 -13 c-22
-10 -47 -19 -55 -19 -8 0 3 8 25 19 22 11 47 19 55 19 8 0 -3 -9 -25 -19z
m-100 -40 c-3 -5 -12 -10 -18 -10 -7 0 -6 4 3 10 19 12 23 12 15 0z m-35 -13
c0 -2 -18 -18 -40 -36 -22 -17 -40 -28 -40 -24 1 12 80 71 80 60z m-96 -65 c3
-5 -14 -26 -36 -48 l-42 -39 32 38 c18 21 32 42 32 47 0 12 7 13 14 2z m-152
-116 c2 -19 1 -33 -3 -30 -9 5 -17 64 -8 64 4 0 9 -15 11 -34z m36 -21 c-6
-14 -13 -23 -15 -21 -5 5 15 46 22 46 3 0 -1 -11 -7 -25z"/>
<path d="M1140 3562 c0 -5 14 -28 30 -50 17 -23 30 -45 30 -49 1 -28 118 -123
151 -123 11 0 19 -12 23 -34 10 -52 70 -164 121 -226 50 -61 52 -65 29 -87
-23 -23 -10 -117 33 -233 43 -114 180 -330 241 -378 60 -48 178 -100 252 -111
36 -6 187 -13 335 -17 l270 -7 120 32 c66 18 143 39 170 48 58 18 142 78 181
128 57 75 130 335 94 335 -5 0 -10 -11 -10 -25 0 -43 -75 -187 -131 -252 -95
-110 -152 -139 -329 -168 -117 -19 -549 -22 -671 -5 -84 12 -216 63 -263 102
-19 16 -68 79 -109 141 -71 108 -111 198 -141 315 -13 53 -13 54 8 49 193 -48
209 -50 291 -36 100 17 371 17 485 0 47 -7 141 -23 210 -36 212 -41 282 -41
460 -6 95 19 291 116 380 188 30 25 71 71 91 102 20 31 48 67 63 80 28 26 33
53 14 69 -21 17 -51 -3 -93 -62 -34 -48 -52 -62 -130 -101 -160 -79 -364 -89
-530 -25 -33 12 -134 58 -225 102 -243 117 -463 204 -546 217 -39 6 -145 13
-234 16 -171 6 -166 7 -310 -43 -24 -8 -73 -16 -109 -18 l-65 -3 -51 53 c-27
30 -64 70 -81 90 -29 34 -54 47 -54 28z m585 -472 c-3 -5 -12 -10 -18 -10 -7
0 -6 4 3 10 19 12 23 12 15 0z m-35 -24 c0 -2 -8 -10 -17 -17 -16 -13 -17 -12
-4 4 13 16 21 21 21 13z m725 -24 c-3 -3 -11 0 -18 7 -9 10 -8 11 6 5 10 -3
15 -9 12 -12z m90 -30 c-3 -3 -11 0 -18 7 -9 10 -8 11 6 5 10 -3 15 -9 12 -12z
m-855 -12 c13 -8 13 -10 -2 -10 -9 0 -20 5 -23 10 -8 13 5 13 25 0z m567 -4
c3 -2 -28 -5 -69 -5 -40 0 -109 -3 -153 -7 -44 -4 -77 -4 -74 0 15 16 282 27
296 12z m53 -6 c-20 -13 -43 -13 -35 0 3 6 16 10 28 10 18 0 19 -2 7 -10z
m-478 -15 c25 0 44 -3 41 -7 -7 -13 -84 -8 -128 8 l-40 13 40 -7 c22 -3 61 -7
87 -7z m103 5 c-3 -5 -16 -10 -28 -10 -18 0 -19 2 -7 10 20 13 43 13 35 0z
m540 -5 c28 -2 66 -11 85 -19 37 -16 27 -22 -12 -7 -13 5 -53 12 -88 15 -36 4
-81 11 -100 16 -31 9 -29 9 15 4 28 -2 73 -7 100 -9z m162 -41 c-3 -3 -12 -4
-19 -1 -8 3 -5 6 6 6 11 1 17 -2 13 -5z m83 -9 c22 -8 28 -13 15 -13 -11 0
-36 6 -55 13 -22 8 -28 13 -15 13 11 0 36 -6 55 -13z"/>
</g>
</svg>
